<svg width="94" height="36" viewBox="0 0 94 36" fill="none" xmlns="http://www.w3.org/2000/svg">
<path d="M13.9446 28.7955C18.5463 28.8603 21.1705 30.1392 23.8532 33.3735C21.3343 25.5586 18.9492 21.5043 10.7462 23.4649C7.66447 25.1336 7.54791 27.9175 9.24111 28.3565C10.9343 28.7955 13.9446 28.7955 13.9446 28.7955Z" fill="#FF8C94"/>
<path d="M11.4361 12.6782C20.0906 18.824 21.5189 22.6349 25.2956 33.1852C25.5022 14.6493 18.8991 1.64067 12.6903 0.511876C6.48162 -0.616915 2.7816 6.53234 11.4361 12.6782Z" fill="#FF8C94"/>
<path d="M35.4683 19.8555C29.5468 23.7415 28.5045 26.2429 25.7377 33.1722C26.0303 20.8386 30.7415 12.3402 34.9134 11.7342C39.0853 11.1282 41.3898 15.9696 35.4683 19.8555Z" fill="#FF8C94"/>
<path d="M34.5533 28.0645C30.8453 29.0079 29.873 30.1022 27.2411 33.1549C29.5597 26.9067 33.4607 23.3945 35.6982 23.8187C37.9357 24.2429 38.2613 27.1211 34.5533 28.0645Z" fill="#FF8C94"/>
<path d="M47.2931 17.4527L44.6275 8.24777H45.8164L47.862 15.5286L49.9011 8.25416L51.0965 8.24777L53.142 15.5286L55.1812 8.24777H56.3765L53.7109 17.4527H52.5731L50.502 10.2358L48.4309 17.4527H47.2931ZM57.3442 9.32807V8.15188H58.482V9.32807H57.3442ZM57.3442 17.4527V10.549H58.482V17.4527H57.3442ZM60.5278 17.4527V8.056H61.6657V17.4527H60.5278ZM63.7115 17.4527V8.056H64.8494V17.4527H63.7115ZM69.3268 17.4527V8.24777H72.9129C73.4626 8.24777 73.9314 8.3607 74.3192 8.58656C74.7112 8.81242 75.0095 9.11073 75.2141 9.48149C75.4229 9.84798 75.5273 10.2443 75.5273 10.6705C75.5273 11.1691 75.3995 11.6059 75.1438 11.9809C74.8881 12.3559 74.5429 12.6137 74.1082 12.7543L74.0954 12.4411C74.6878 12.5988 75.148 12.8886 75.4762 13.3105C75.8043 13.7324 75.9684 14.2352 75.9684 14.8191C75.9684 15.356 75.8576 15.8205 75.636 16.2126C75.4186 16.6047 75.1033 16.9094 74.6899 17.1267C74.2808 17.344 73.795 17.4527 73.2325 17.4527H69.3268ZM70.4774 16.366H73.0151C73.3561 16.366 73.6608 16.3042 73.9292 16.1806C74.1977 16.0528 74.4087 15.8738 74.5621 15.6437C74.7197 15.4136 74.7986 15.1366 74.7986 14.8127C74.7986 14.5016 74.7283 14.2224 74.5876 13.9753C74.4513 13.7281 74.2574 13.5321 74.0059 13.3872C73.7588 13.238 73.4711 13.1635 73.143 13.1635H70.4774V16.366ZM70.4774 12.0895H72.9001C73.1728 12.0895 73.4178 12.032 73.6352 11.917C73.8568 11.7976 74.0315 11.6314 74.1594 11.4184C74.2915 11.2053 74.3575 10.956 74.3575 10.6705C74.3575 10.2741 74.2233 9.95025 73.9548 9.69882C73.6863 9.44739 73.3347 9.32168 72.9001 9.32168H70.4774V12.0895ZM80.2338 17.6445C79.5563 17.6445 78.9639 17.4953 78.4568 17.197C77.9539 16.8944 77.5619 16.4747 77.2806 15.9377C76.9993 15.3965 76.8587 14.7658 76.8587 14.0456C76.8587 13.2913 76.9972 12.6393 77.2742 12.0895C77.5512 11.5355 77.9369 11.1094 78.4312 10.8111C78.9298 10.5085 79.5136 10.3572 80.1827 10.3572C80.8773 10.3572 81.4676 10.517 81.9534 10.8367C82.4435 11.1563 82.8099 11.6123 83.0529 12.2046C83.3 12.797 83.4066 13.5022 83.3725 14.3205H82.2219V13.9114C82.2091 13.0633 82.0365 12.4305 81.7041 12.0128C81.3717 11.5909 80.8773 11.38 80.2211 11.38C79.5179 11.38 78.9831 11.6059 78.6166 12.0576C78.2501 12.5093 78.0669 13.1571 78.0669 14.0008C78.0669 14.8148 78.2501 15.4455 78.6166 15.893C78.9831 16.3404 79.5051 16.5642 80.1827 16.5642C80.6387 16.5642 81.035 16.4598 81.3717 16.2509C81.7083 16.0421 81.9726 15.7417 82.1643 15.3496L83.2574 15.7268C82.9889 16.3362 82.5841 16.8092 82.0429 17.1459C81.5059 17.4783 80.9029 17.6445 80.2338 17.6445ZM77.6833 14.3205V13.4064H82.7844V14.3205H77.6833Z" fill="white"/>
<path d="M49.862 28V19.8754H46.7234V18.7951H54.1385V19.8754H50.9999V28H49.862ZM60.072 28V24.5418C60.072 24.2136 60.0421 23.8983 59.9825 23.5957C59.9271 23.2931 59.8269 23.0225 59.682 22.7839C59.5414 22.541 59.3496 22.3492 59.1067 22.2086C58.8681 22.0679 58.5655 21.9976 58.199 21.9976C57.9135 21.9976 57.6535 22.0466 57.4191 22.1446C57.189 22.2384 56.9909 22.3833 56.8247 22.5793C56.6585 22.7754 56.5285 23.0225 56.4347 23.3208C56.3452 23.6149 56.3005 23.9622 56.3005 24.3628L55.5526 24.1327C55.5526 23.4636 55.6719 22.8904 55.9106 22.4131C56.1535 21.9316 56.4923 21.5629 56.9269 21.3072C57.3659 21.0473 57.8815 20.9173 58.4739 20.9173C58.9213 20.9173 59.3027 20.9876 59.6181 21.1283C59.9335 21.2689 60.1955 21.4564 60.4044 21.6908C60.6132 21.9209 60.7772 22.1809 60.8966 22.4707C61.0159 22.7562 61.099 23.0481 61.1459 23.3464C61.197 23.6404 61.2226 23.9196 61.2226 24.1838V28H60.072ZM55.1499 28V18.7951H56.1726V23.877H56.3005V28H55.1499ZM65.8761 28.1918C65.1985 28.1918 64.6061 28.0426 64.099 27.7443C63.5961 27.4417 63.2041 27.022 62.9228 26.485C62.6416 25.9438 62.5009 25.3131 62.5009 24.5929C62.5009 23.8386 62.6394 23.1866 62.9164 22.6369C63.1934 22.0829 63.5791 21.6567 64.0734 21.3584C64.572 21.0558 65.1559 20.9045 65.8249 20.9045C66.5196 20.9045 67.1098 21.0643 67.5956 21.384C68.0857 21.7036 68.4522 22.1596 68.6951 22.7519C68.9422 23.3443 69.0488 24.0496 69.0147 24.8678H67.8641V24.4587C67.8513 23.6106 67.6787 22.9778 67.3463 22.5601C67.0139 22.1383 66.5196 21.9273 65.8633 21.9273C65.1601 21.9273 64.6253 22.1532 64.2588 22.6049C63.8923 23.0566 63.7091 23.7044 63.7091 24.5482C63.7091 25.3621 63.8923 25.9928 64.2588 26.4403C64.6253 26.8877 65.1473 27.1115 65.8249 27.1115C66.2809 27.1115 66.6772 27.0071 67.0139 26.7982C67.3506 26.5894 67.6148 26.289 67.8065 25.8969L68.8996 26.2741C68.6312 26.8835 68.2263 27.3565 67.6851 27.6932C67.1481 28.0256 66.5451 28.1918 65.8761 28.1918ZM63.3255 24.8678V23.9537H68.4266V24.8678H63.3255ZM70.4379 28V21.0963H71.4543V22.7647L71.2881 22.5474C71.369 22.3343 71.4734 22.1383 71.6013 21.9593C71.7334 21.7803 71.8804 21.6333 72.0424 21.5182C72.2213 21.3733 72.4238 21.2625 72.6496 21.1858C72.8755 21.1091 73.1056 21.0643 73.34 21.0516C73.5744 21.0345 73.7938 21.0494 73.9984 21.0963V22.1638C73.7598 22.0999 73.4977 22.0829 73.2121 22.1127C72.9266 22.1425 72.6624 22.2469 72.4195 22.4259C72.1979 22.5836 72.0253 22.7754 71.9017 23.0012C71.7824 23.2271 71.6993 23.4721 71.6524 23.7363C71.6055 23.9963 71.5821 24.2626 71.5821 24.5354V28H70.4379ZM78.0739 28.1918C77.3963 28.1918 76.804 28.0426 76.2968 27.7443C75.794 27.4417 75.4019 27.022 75.1207 26.485C74.8394 25.9438 74.6988 25.3131 74.6988 24.5929C74.6988 23.8386 74.8373 23.1866 75.1143 22.6369C75.3913 22.0829 75.7769 21.6567 76.2713 21.3584C76.7699 21.0558 77.3537 20.9045 78.0228 20.9045C78.7174 20.9045 79.3076 21.0643 79.7934 21.384C80.2835 21.7036 80.65 22.1596 80.8929 22.7519C81.1401 23.3443 81.2466 24.0496 81.2125 24.8678H80.0619V24.4587C80.0491 23.6106 79.8765 22.9778 79.5441 22.5601C79.2117 22.1383 78.7174 21.9273 78.0611 21.9273C77.358 21.9273 76.8231 22.1532 76.4566 22.6049C76.0902 23.0566 75.9069 23.7044 75.9069 24.5482C75.9069 25.3621 76.0902 25.9928 76.4566 26.4403C76.8231 26.8877 77.3452 27.1115 78.0228 27.1115C78.4787 27.1115 78.8751 27.0071 79.2117 26.7982C79.5484 26.5894 79.8126 26.289 80.0044 25.8969L81.0975 26.2741C80.829 26.8835 80.4241 27.3565 79.8829 27.6932C79.346 28.0256 78.743 28.1918 78.0739 28.1918ZM75.5234 24.8678V23.9537H80.6244V24.8678H75.5234Z" fill="white"/>
</svg>
