<svg width="26" height="25" viewBox="0 0 26 25" fill="none" xmlns="http://www.w3.org/2000/svg">
<path d="M25.66 13.11C25.6936 13.0623 25.7237 13.0122 25.75 12.96L25.85 12.76L25.91 12.56C25.9326 12.5053 25.9494 12.4483 25.96 12.39C26.0112 12.1326 26.0112 11.8675 25.96 11.61C25.9494 11.5518 25.9326 11.4948 25.91 11.44L25.85 11.24L25.75 11.04C25.7237 10.9879 25.6936 10.9378 25.66 10.89C25.5885 10.7777 25.5046 10.6737 25.41 10.58L15.41 0.580035C15.0274 0.252382 14.5352 0.0811703 14.0319 0.100613C13.5285 0.120055 13.0511 0.32872 12.6949 0.684909C12.3387 1.0411 12.13 1.51858 12.1106 2.02193C12.0911 2.52528 12.2623 3.01743 12.59 3.40004L19.17 10H2C1.46957 10 0.960859 10.2107 0.585786 10.5858C0.210714 10.9609 0 11.4696 0 12C0 12.5305 0.210714 13.0392 0.585786 13.4142C0.960859 13.7893 1.46957 14 2 14H19.17L12.59 20.59C12.3806 20.7693 12.2106 20.99 12.0905 21.2381C11.9705 21.4862 11.903 21.7565 11.8924 22.0319C11.8818 22.3074 11.9282 22.582 12.0287 22.8387C12.1293 23.0953 12.2818 23.3284 12.4767 23.5233C12.6716 23.7182 12.9047 23.8708 13.1614 23.9713C13.418 24.0719 13.6927 24.1183 13.9681 24.1076C14.2435 24.097 14.5138 24.0295 14.7619 23.9095C15.0101 23.7894 15.2307 23.6194 15.41 23.41L25.41 13.41C25.504 13.3195 25.5879 13.2189 25.66 13.11V13.11Z" fill="white"/>
</svg>
