<svg width="40" height="40" viewBox="0 0 40 40" fill="none" xmlns="http://www.w3.org/2000/svg">
<path d="M31.6668 21.6667C31.2248 21.6667 30.8009 21.8423 30.4883 22.1548C30.1758 22.4674 30.0002 22.8913 30.0002 23.3333V23.9667L27.5335 21.5C26.6625 20.6359 25.4854 20.1511 24.2585 20.1511C23.0316 20.1511 21.8545 20.6359 20.9835 21.5L19.8168 22.6667L15.6835 18.5333C14.8004 17.6927 13.6278 17.2238 12.4085 17.2238C11.1892 17.2238 10.0166 17.6927 9.1335 18.5333L6.66683 21V11.6667C6.66683 11.2246 6.84242 10.8007 7.15498 10.4882C7.46755 10.1756 7.89147 10 8.3335 10H20.0002C20.4422 10 20.8661 9.82442 21.1787 9.51185C21.4912 9.19929 21.6668 8.77537 21.6668 8.33334C21.6668 7.89132 21.4912 7.46739 21.1787 7.15483C20.8661 6.84227 20.4422 6.66668 20.0002 6.66668H8.3335C7.00741 6.66668 5.73564 7.19346 4.79796 8.13114C3.86028 9.06883 3.3335 10.3406 3.3335 11.6667V31.6667C3.3335 32.9928 3.86028 34.2645 4.79796 35.2022C5.73564 36.1399 7.00741 36.6667 8.3335 36.6667H28.3335C29.6596 36.6667 30.9313 36.1399 31.869 35.2022C32.8067 34.2645 33.3335 32.9928 33.3335 31.6667V23.3333C33.3335 22.8913 33.1579 22.4674 32.8453 22.1548C32.5328 21.8423 32.1089 21.6667 31.6668 21.6667ZM8.3335 33.3333C7.89147 33.3333 7.46755 33.1578 7.15498 32.8452C6.84242 32.5326 6.66683 32.1087 6.66683 31.6667V25.7167L11.5002 20.8833C11.745 20.65 12.0703 20.5199 12.4085 20.5199C12.7467 20.5199 13.072 20.65 13.3168 20.8833L18.6002 26.1667L25.7668 33.3333H8.3335ZM30.0002 31.6667C29.9978 31.9857 29.8926 32.2955 29.7002 32.55L22.1835 25L23.3502 23.8333C23.4697 23.7114 23.6123 23.6145 23.7697 23.5484C23.9271 23.4822 24.0961 23.4482 24.2668 23.4482C24.4376 23.4482 24.6066 23.4822 24.764 23.5484C24.9214 23.6145 25.064 23.7114 25.1835 23.8333L30.0002 28.6833V31.6667ZM37.8502 7.15001L32.8502 2.15001C32.6917 1.99828 32.5047 1.87933 32.3002 1.80001C31.8944 1.63331 31.4393 1.63331 31.0335 1.80001C30.8289 1.87933 30.642 1.99828 30.4835 2.15001L25.4835 7.15001C25.3281 7.30541 25.2048 7.48989 25.1207 7.69293C25.0366 7.89597 24.9933 8.11358 24.9933 8.33334C24.9933 8.77718 25.1697 9.20284 25.4835 9.51668C25.7973 9.83052 26.223 10.0068 26.6668 10.0068C27.1107 10.0068 27.5363 9.83052 27.8502 9.51668L30.0002 7.35001V16.6667C30.0002 17.1087 30.1758 17.5326 30.4883 17.8452C30.8009 18.1577 31.2248 18.3333 31.6668 18.3333C32.1089 18.3333 32.5328 18.1577 32.8453 17.8452C33.1579 17.5326 33.3335 17.1087 33.3335 16.6667V7.35001L35.4835 9.51668C35.6384 9.67289 35.8228 9.79688 36.0259 9.8815C36.229 9.96611 36.4468 10.0097 36.6668 10.0097C36.8868 10.0097 37.1047 9.96611 37.3078 9.8815C37.5109 9.79688 37.6952 9.67289 37.8502 9.51668C38.0064 9.36174 38.1304 9.1774 38.215 8.9743C38.2996 8.77121 38.3432 8.55336 38.3432 8.33334C38.3432 8.11332 38.2996 7.89548 38.215 7.69238C38.1304 7.48928 38.0064 7.30495 37.8502 7.15001Z" fill="#9964C9"/>
</svg>
